<svg width="107" height="23" viewBox="0 0 107 23" fill="none" xmlns="http://www.w3.org/2000/svg">
<path d="M6.36109 4.9375L10.1697 16.8086L13.9666 4.9375H19.3806V22H15.2556V18.0156L15.6541 9.85938L11.5291 22H8.81031L4.67359 9.84766L5.07203 18.0156V22H0.958748V4.9375H6.36109ZM35.2684 22H31.1669V4.9375H35.2684V22ZM51.1211 18.8359H58.2812V22H47.0078V4.9375H51.1211V18.8359ZM82.5948 13.8203C82.5948 15.4844 82.2862 16.957 81.6691 18.2383C81.0519 19.5195 80.173 20.5078 79.0323 21.2031C77.8995 21.8906 76.6066 22.2344 75.1534 22.2344C73.7003 22.2344 72.4112 21.9023 71.2862 21.2383C70.1612 20.5664 69.2823 19.6094 68.6495 18.3672C68.0245 17.125 67.6964 15.6992 67.6652 14.0898V13.1289C67.6652 11.457 67.9698 9.98438 68.5792 8.71094C69.1964 7.42969 70.0753 6.44141 71.2159 5.74609C72.3644 5.05078 73.6691 4.70312 75.13 4.70312C76.5753 4.70312 77.8644 5.04687 78.9972 5.73438C80.13 6.42188 81.0089 7.40234 81.6339 8.67578C82.2667 9.94141 82.587 11.3945 82.5948 13.0352V13.8203ZM78.4112 13.1055C78.4112 11.4102 78.1261 10.125 77.5558 9.25C76.9933 8.36719 76.1847 7.92578 75.13 7.92578C73.0675 7.92578 71.9777 9.47266 71.8605 12.5664L71.8487 13.8203C71.8487 15.4922 72.1261 16.7773 72.6808 17.6758C73.2355 18.5742 74.0597 19.0234 75.1534 19.0234C76.1925 19.0234 76.9933 18.582 77.5558 17.6992C78.1183 16.8164 78.4034 15.5469 78.4112 13.8906V13.1055ZM102.397 17.4648C102.397 16.8633 102.182 16.3945 101.752 16.0586C101.33 15.7227 100.584 15.375 99.5139 15.0156C98.4436 14.6562 97.5686 14.3086 96.8889 13.9727C94.678 12.8867 93.5725 11.3945 93.5725 9.49609C93.5725 8.55078 93.8459 7.71875 94.3928 7C94.9475 6.27344 95.7288 5.71094 96.7366 5.3125C97.7444 4.90625 98.8772 4.70312 100.135 4.70312C101.362 4.70312 102.459 4.92188 103.428 5.35938C104.405 5.79687 105.162 6.42188 105.701 7.23438C106.24 8.03906 106.51 8.96094 106.51 10H102.408C102.408 9.30469 102.194 8.76562 101.764 8.38281C101.342 8 100.768 7.80859 100.041 7.80859C99.3069 7.80859 98.7248 7.97266 98.2952 8.30078C97.8733 8.62109 97.6623 9.03125 97.6623 9.53125C97.6623 9.96875 97.8967 10.3672 98.3655 10.7266C98.8342 11.0781 99.6584 11.4453 100.838 11.8281C102.018 12.2031 102.987 12.6094 103.744 13.0469C105.588 14.1094 106.51 15.5742 106.51 17.4414C106.51 18.9336 105.948 20.1055 104.823 20.957C103.698 21.8086 102.155 22.2344 100.194 22.2344C98.8108 22.2344 97.5569 21.9883 96.4319 21.4961C95.3147 20.9961 94.4709 20.3164 93.9006 19.457C93.3381 18.5898 93.0569 17.5938 93.0569 16.4688H97.1819C97.1819 17.3828 97.4163 18.0586 97.885 18.4961C98.3616 18.9258 99.1311 19.1406 100.194 19.1406C100.873 19.1406 101.408 18.9961 101.799 18.707C102.198 18.4102 102.397 17.9961 102.397 17.4648ZM100.065 1.92578L101.787 0.355469H105.151V0.484375L101.33 3.80078H98.7873L94.9436 0.460938V0.355469H98.342L100.065 1.92578Z" fill="#FF4400"/>
</svg>
